<svg id="Layer_1" data-name="Layer 1" xmlns="http://www.w3.org/2000/svg" viewBox="0 0 585.52 483.5"><defs><style>.cls-1{fill:#0b1f41;}.cls-2{fill:#ef462f;}</style></defs><path class="cls-1" d="M549.41,697.69l-66.77,44.06a383.1,383.1,0,0,1-89.12-46.48C232.89,582.11,211.26,377.4,207.24,324.43L274,280.37c10.22,66.26,42.09,207.4,158.44,326.29A555.39,555.39,0,0,0,549.41,697.69Z" transform="translate(-207.24 -258.25)"/><rect class="cls-1" x="518.72" y="250.23" width="80" height="500" transform="translate(75.62 -455.37) rotate(26.58)"/><path class="cls-2" d="M482.71,741.75q24.29-48.59,48.55-97.17c157.46-47.17,197.89-104.23,206.92-146.29,22-102.71-124.47-250.09-103.3-239.5l71.54,35.79c15.27,15,95.15,96.4,85.54,203.8C780.8,623.07,653.16,736.52,482.71,741.75Z" transform="translate(-207.24 -258.25)"/></svg>